<svg width="30" height="31" viewBox="0 0 30 31" fill="none" xmlns="http://www.w3.org/2000/svg">
<path fill-rule="evenodd" clip-rule="evenodd" d="M19.828 1.80005C20.0583 3.36445 19.4216 4.89706 18.5816 5.98139C17.6829 7.14447 16.1339 8.04404 14.633 7.99709C14.359 6.49932 15.0605 4.95612 15.9141 3.91874C16.8504 2.77383 18.4551 1.89546 19.828 1.80005ZM24.3366 23.8199C25.1103 22.6341 25.3994 22.0359 26 20.6971C21.6314 19.0358 20.9314 12.8251 25.2548 10.4414C23.9361 8.78763 22.083 7.82899 20.3338 7.82899C19.0734 7.82899 18.2098 8.15791 17.4248 8.45692C16.7705 8.70611 16.1708 8.93453 15.4414 8.93453C14.6531 8.93453 13.9551 8.68425 13.2242 8.42219C12.4211 8.13422 11.5782 7.83202 10.5324 7.83202C8.56939 7.83202 6.47994 9.03145 5.15522 11.082C3.29309 13.97 3.61072 19.3992 6.63048 24.0243C7.70983 25.6796 9.15196 27.5393 11.0382 27.556C11.8208 27.5637 12.3417 27.3301 12.9053 27.0774C13.5503 26.788 14.2515 26.4735 15.4655 26.4671C16.6866 26.4598 17.3767 26.7781 18.0132 27.0717C18.5623 27.3249 19.0716 27.5598 19.8476 27.5514C21.7353 27.5363 23.2572 25.4751 24.3366 23.8199Z" fill="#0B0B0A"/>
</svg>
