<svg width="25" height="24" viewBox="0 0 25 24" fill="none" xmlns="http://www.w3.org/2000/svg">
<g id="Dzen">
<path id="Vector" d="M22.7023 11.5132C22.7043 11.5132 22.7057 11.5132 22.7076 11.5132C22.8415 11.5132 22.9692 11.457 23.0599 11.3586C23.1521 11.2588 23.1977 11.1249 23.1857 10.9895C22.7038 5.68885 18.5071 1.49077 13.206 1.00789C13.0716 0.997335 12.9363 1.04101 12.8364 1.13365C12.7366 1.22581 12.6809 1.35589 12.6823 1.49173C12.7659 8.53621 13.6951 11.4148 22.7023 11.5132ZM22.7023 12.4866C13.6951 12.585 12.7663 15.4636 12.6828 22.5081C12.6814 22.6439 12.7371 22.774 12.8369 22.8661C12.9262 22.9482 13.0428 22.9938 13.1628 22.9938C13.1772 22.9938 13.1921 22.9933 13.2065 22.9919C18.5076 22.509 22.7043 18.3114 23.1857 13.0103C23.1977 12.8749 23.1526 12.741 23.0599 12.6412C22.9673 12.5413 22.8382 12.4919 22.7023 12.4866ZM11.1483 1.01029C5.86394 1.50709 1.68074 5.70421 1.20122 10.9905C1.18922 11.1258 1.23434 11.2597 1.32698 11.3596C1.4177 11.458 1.54586 11.5137 1.6793 11.5137C1.68122 11.5137 1.68314 11.5137 1.68506 11.5137C10.6625 11.4105 11.5894 8.53333 11.6739 1.49365C11.6753 1.35781 11.6191 1.22725 11.5193 1.13509C11.4185 1.04293 11.2836 0.997815 11.1483 1.01029ZM1.68458 12.4861C1.5353 12.4693 1.41818 12.5404 1.3265 12.6402C1.23434 12.7401 1.18874 12.874 1.20074 13.0093C1.68026 18.2956 5.86394 22.4927 11.1483 22.9895C11.1631 22.9909 11.1785 22.9914 11.1934 22.9914C11.3134 22.9914 11.4295 22.9463 11.5188 22.8642C11.6187 22.7721 11.6748 22.6415 11.6734 22.5057C11.5889 15.4665 10.6625 12.5893 1.68458 12.4861Z" fill="#171717"/>
</g>
</svg>
