<svg width="15" height="16" viewBox="0 0 15 16" fill="none" xmlns="http://www.w3.org/2000/svg">
<g id="Icon">
<path id="Vector" d="M0.386475 7.73344C0.386475 5.47561 0.386475 3.23463 0.386475 0.976796C0.386475 0.707204 0.436568 0.454462 0.620243 0.235419C0.687033 0.151171 0.737126 0.134322 0.837312 0.235419C2.29001 1.78557 3.74271 3.31888 5.19541 4.86903C6.13048 5.86315 7.08225 6.87412 8.01732 7.86824C8.10081 7.96933 8.11751 8.01988 8.01732 8.12098C5.71304 10.5136 3.40876 12.9231 1.10448 15.3326C0.970894 15.4842 0.870708 15.4674 0.737126 15.3494C0.486661 15.1472 0.403173 14.8776 0.403173 14.5743C0.403173 13.2432 0.403173 11.9121 0.403173 10.581C0.386475 9.62059 0.386475 8.67701 0.386475 7.73344Z" fill="#171717"/>
<path id="Vector_2" d="M1.20471 0C1.38839 0 1.50527 0.0505486 1.62215 0.117947C4.57765 1.83659 7.51644 3.57209 10.4719 5.29074C10.6055 5.37499 10.6055 5.40869 10.5053 5.52663C9.85412 6.20061 9.18621 6.89144 8.535 7.56542C8.46821 7.63282 8.41811 7.68337 8.33463 7.58227C5.98025 5.08855 3.64258 2.59482 1.2882 0.101097C1.2715 0.0673977 1.2548 0.0505485 1.20471 0Z" fill="#171717"/>
<path id="Vector_3" d="M8.28439 8.47525C6.27946 10.609 4.27354 12.7095 2.26848 14.8253C2.20166 14.8958 2.28748 15.0046 2.37163 14.956C4.98562 13.4484 7.59839 11.9385 10.2213 10.4466C10.3549 10.3792 10.3549 10.3287 10.2547 10.2276C9.68699 9.65472 9.13597 9.06499 8.60165 8.47525C8.48476 8.35731 8.41797 8.34046 8.28439 8.47525Z" fill="#171717"/>
<path id="Vector_4" d="M14.0955 7.80109C14.0788 8.05384 13.9786 8.23918 13.7949 8.37398C13.6613 8.47507 13.5277 8.55932 13.3775 8.62672C12.5426 9.0985 11.7077 9.58714 10.8895 10.0589C10.7726 10.1263 10.7058 10.1263 10.6223 10.0252C10.0379 9.38495 9.4368 8.76151 8.83569 8.12123C8.7522 8.03699 8.7522 7.98644 8.83569 7.88534C9.53699 7.16081 10.2216 6.45313 10.9229 5.72861C11.0064 5.64436 11.0565 5.62751 11.1567 5.69491C11.9749 6.18354 12.793 6.65533 13.6279 7.14396C13.8784 7.29561 14.0788 7.48095 14.0955 7.80109Z" fill="#171717"/>
</g>
</svg>
