<svg width="13" height="15" viewBox="0 0 13 15" fill="none" xmlns="http://www.w3.org/2000/svg">
<g id="Icon">
<path id="Vector" d="M10.2165 7.56918C10.2235 7.02361 10.3675 6.48867 10.6351 6.01415C10.9028 5.53964 11.2854 5.14095 11.7473 4.85519C11.4538 4.43348 11.0667 4.08644 10.6167 3.84161C10.1666 3.59678 9.66606 3.46093 9.15471 3.44483C8.0639 3.32961 7.00643 4.10164 6.45056 4.10164C5.88396 4.10164 5.02814 3.45627 4.10656 3.47535C3.51046 3.49473 2.92951 3.66915 2.42032 3.98164C1.91113 4.29412 1.49106 4.734 1.20104 5.25842C-0.0552099 7.4471 0.881845 10.6637 2.08525 12.4329C2.68735 13.2992 3.39102 14.2669 4.31177 14.2326C5.21277 14.195 5.54928 13.6545 6.63687 13.6545C7.71436 13.6545 8.03007 14.2326 8.96951 14.2108C9.93633 14.195 10.5455 13.3406 11.1264 12.4661C11.5591 11.8488 11.8919 11.1666 12.1128 10.4447C11.5511 10.2056 11.0717 9.8055 10.7345 9.29415C10.3973 8.7828 10.2172 8.18288 10.2165 7.56918Z" fill="#171717"/>
<path id="Vector_2" d="M8.44214 2.28165C8.96929 1.64486 9.229 0.826367 9.16612 0C8.36075 0.085118 7.61681 0.472443 7.08254 1.0848C6.82132 1.38395 6.62125 1.73198 6.49377 2.10899C6.36629 2.48599 6.31391 2.88458 6.33961 3.28197C6.74244 3.28614 7.14095 3.19829 7.50515 3.02501C7.86934 2.85174 8.18971 2.59757 8.44214 2.28165Z" fill="#171717"/>
</g>
</svg>
