<svg width="25" height="24" viewBox="0 0 25 24" fill="none" xmlns="http://www.w3.org/2000/svg">
<g id="Odnoklassniki">
<path id="Vector" d="M11.1673 16.0109C9.63628 15.8509 8.25528 15.4709 7.07328 14.5399C6.92628 14.4239 6.77428 14.3119 6.64128 14.1829C6.12328 13.6829 6.07128 13.1089 6.48128 12.5189C6.83128 12.0129 7.41928 11.8779 8.03028 12.1689C8.14828 12.2239 8.26028 12.2949 8.36928 12.3699C10.5723 13.8939 13.5993 13.9359 15.8103 12.4389C16.0303 12.2689 16.2643 12.1309 16.5353 12.0609C17.0633 11.9249 17.5553 12.1199 17.8383 12.5849C18.1623 13.1149 18.1583 13.6349 17.7593 14.0459C17.1483 14.6789 16.4123 15.1359 15.5953 15.4549C14.8223 15.7569 13.9753 15.9089 13.1383 16.0089C13.2643 16.1479 13.3243 16.2159 13.4033 16.2959C14.5403 17.4459 15.6833 18.5929 16.8173 19.7469C17.2033 20.1409 17.2843 20.6279 17.0713 21.0859C16.8383 21.5859 16.3183 21.9149 15.8073 21.8799C15.4843 21.8569 15.2323 21.6949 15.0073 21.4679C14.1493 20.5979 13.2753 19.7439 12.4343 18.8579C12.1893 18.5999 12.0713 18.6489 11.8553 18.8729C10.9923 19.7679 10.1153 20.6489 9.23128 21.5259C8.83528 21.9189 8.36328 21.9899 7.90328 21.7659C7.41528 21.5259 7.10328 21.0249 7.12828 20.5199C7.14428 20.1779 7.31128 19.9179 7.54428 19.6839C8.67028 18.5519 9.79228 17.4169 10.9153 16.2839C10.9893 16.2079 11.0593 16.1279 11.1673 16.0109Z" fill="#171717"/>
<path id="Vector_2" d="M12.1003 12.069C9.36826 12.059 7.12826 9.77902 7.14326 7.02302C7.15926 4.23702 9.40126 1.99302 12.1603 2.00002C14.9243 2.00702 17.1433 4.28502 17.1303 7.10002C17.1153 9.85002 14.8603 12.078 12.1003 12.069ZM14.5833 7.02902C14.5851 6.70697 14.5233 6.38774 14.4014 6.08967C14.2794 5.7916 14.0998 5.52056 13.8728 5.29214C13.6457 5.06373 13.3758 4.88243 13.0785 4.75867C12.7812 4.63492 12.4623 4.57114 12.1403 4.57102C11.8152 4.5707 11.4933 4.63516 11.1934 4.76064C10.8935 4.88611 10.6216 5.07008 10.3937 5.3018C10.1657 5.53352 9.98612 5.80834 9.86552 6.11022C9.74492 6.4121 9.68568 6.73499 9.69126 7.06002C9.69165 7.38219 9.75576 7.7011 9.87989 7.9984C10.004 8.29569 10.1857 8.5655 10.4146 8.79229C10.6434 9.01907 10.9148 9.19836 11.2132 9.31982C11.5116 9.44128 11.8311 9.50252 12.1533 9.50002C12.4754 9.49885 12.7942 9.43388 13.0911 9.30884C13.388 9.1838 13.6572 9.00119 13.8831 8.77153C14.1091 8.54187 14.2873 8.26973 14.4074 7.97082C14.5276 7.67191 14.5874 7.35215 14.5833 7.03002V7.02902Z" fill="#171717"/>
</g>
</svg>
