<svg width="31" height="31" viewBox="0 0 31 31" fill="none" xmlns="http://www.w3.org/2000/svg">
<g id="Interface / Log out">
<path id="Vector" d="M15.25 19.2501L19 15.5001M19 15.5001L15.25 11.7501M19 15.5001H5.25M11.5 9.56086V9.50037C11.5 8.10023 11.5 7.39965 11.7725 6.86487C12.0122 6.39446 12.3943 6.01229 12.8647 5.77261C13.3995 5.50012 14.1001 5.50012 15.5002 5.50012H21.2502C22.6504 5.50012 23.3495 5.50012 23.8842 5.77261C24.3546 6.01229 24.7381 6.39446 24.9778 6.86487C25.25 7.39912 25.25 8.09886 25.25 9.49626V21.5046C25.25 22.902 25.25 23.6007 24.9778 24.135C24.7381 24.6054 24.3546 24.9882 23.8842 25.2279C23.35 25.5001 22.6513 25.5001 21.2539 25.5001H15.4961C14.0987 25.5001 13.399 25.5001 12.8647 25.2279C12.3943 24.9882 12.0122 24.605 11.7725 24.1346C11.5 23.5998 11.5 22.9003 11.5 21.5001V21.4376" stroke="#336FEE" stroke-width="1.875" stroke-linecap="round" stroke-linejoin="round"/>
</g>
</svg>
