<svg width="31" height="31" viewBox="0 0 31 31" fill="none" xmlns="http://www.w3.org/2000/svg">
<rect width="31" height="31" fill="#1E1E1E"/>
<g id="pay 2.0">
<path d="M-923 -1434C-923 -1435.1 -922.105 -1436 -921 -1436H10977C10978.1 -1436 10979 -1435.1 10979 -1434V3305C10979 3306.1 10978.1 3307 10977 3307H-921C-922.105 3307 -923 3306.1 -923 3305V-1434Z" fill="#444444"/>
<path d="M-921 -1435H10977V-1437H-921V-1435ZM10978 -1434V3305H10980V-1434H10978ZM10977 3306H-921V3308H10977V3306ZM-922 3305V-1434H-924V3305H-922ZM-921 3306C-921.552 3306 -922 3305.55 -922 3305H-924C-924 3306.66 -922.657 3308 -921 3308V3306ZM10978 3305C10978 3305.55 10977.6 3306 10977 3306V3308C10978.7 3308 10980 3306.66 10980 3305H10978ZM10977 -1435C10977.6 -1435 10978 -1434.55 10978 -1434H10980C10980 -1435.66 10978.7 -1437 10977 -1437V-1435ZM-921 -1437C-922.657 -1437 -924 -1435.66 -924 -1434H-922C-922 -1434.55 -921.552 -1435 -921 -1435V-1437Z" fill="white" fill-opacity="0.1"/>
<g id="&#208;&#158;&#208;&#191;&#208;&#187;&#208;&#176;&#209;&#130;&#208;&#176; &#208;&#186;&#209;&#128;&#208;&#181;&#208;&#180;&#208;&#184;&#209;&#130;&#208;&#176; &#208;&#178; &#208;&#188;&#208;&#190;&#208;&#177;&#208;&#184;&#208;&#187;&#209;&#140;&#208;&#189;&#208;&#190;&#208;&#188; &#208;&#191;&#209;&#128;&#208;&#184;&#208;&#187;&#208;&#190;&#208;&#182;&#208;&#181;&#208;&#189;&#208;&#184;&#208;&#184;" clip-path="url(#clip0_0_1)">
<rect width="1920" height="3034" transform="translate(-682 -1160)" fill="#F9F8F7"/>
<g id="Frame 737">
<g id="Frame 744">
<g id="Frame 732">
<g id="Frame 714">
<g id="Cards">
<g clip-path="url(#clip1_0_1)">
<rect x="-23.25" y="-24" width="293.75" height="264" rx="16" fill="#F2F2F2"/>
<g id="Frame 741">
<g id="Frame 736">
<path id="path16" d="M21.5888 19.322C24.5072 17.7041 26.7361 16.4682 26.9388 16.3557C27.5436 16.0204 28.1772 15.1647 26.9388 14.4808C26.5408 14.2605 24.3719 13.0626 21.5854 11.5228L17.7529 15.4345L21.5888 19.322Z" fill="#FFE300"/>
<path id="path23" d="M17.7526 15.4346L5.49487 27.9452C5.77169 27.9808 6.10463 27.9065 6.48759 27.6942C7.28043 27.2546 15.7949 22.5339 21.5887 19.3217L17.7526 15.4346Z" fill="#FF4E54"/>
<path id="path30" d="M17.7526 15.4346L21.5851 11.5229C21.5851 11.5229 7.34037 3.65102 6.48758 3.17978C6.1598 2.9986 5.80242 2.93536 5.48608 3.00672L17.7526 15.4346Z" fill="#00F085"/>
<path id="path37" d="M17.7526 15.4345L5.48586 3.00684C4.97919 3.12131 4.56396 3.56548 4.56396 4.45827V26.454C4.56396 27.2948 4.89061 27.8861 5.49464 27.9451L17.7526 15.4345Z" fill="#00E0FF"/>
</g>
</g>
</g>
</g>
</g>
</g>
</g>
</g>
</g>
</g>
<defs>
<clipPath id="clip0_0_1">
<rect width="1920" height="3034" fill="white" transform="translate(-682 -1160)"/>
</clipPath>
<clipPath id="clip1_0_1">
<rect x="-23.25" y="-24" width="293.75" height="264" rx="16" fill="white"/>
</clipPath>
</defs>
</svg>
