<svg width="31" height="31" viewBox="0 0 31 31" fill="none" xmlns="http://www.w3.org/2000/svg">
<rect width="31" height="31" fill="#1E1E1E"/>
<g id="pay 2.0">
<path d="M-1231 -1434C-1231 -1435.1 -1230.1 -1436 -1229 -1436H10669C10670.1 -1436 10671 -1435.1 10671 -1434V3305C10671 3306.1 10670.1 3307 10669 3307H-1229C-1230.1 3307 -1231 3306.1 -1231 3305V-1434Z" fill="#444444"/>
<path d="M-1229 -1435H10669V-1437H-1229V-1435ZM10670 -1434V3305H10672V-1434H10670ZM10669 3306H-1229V3308H10669V3306ZM-1230 3305V-1434H-1232V3305H-1230ZM-1229 3306C-1229.55 3306 -1230 3305.55 -1230 3305H-1232C-1232 3306.66 -1230.66 3308 -1229 3308V3306ZM10670 3305C10670 3305.55 10669.6 3306 10669 3306V3308C10670.7 3308 10672 3306.66 10672 3305H10670ZM10669 -1435C10669.6 -1435 10670 -1434.55 10670 -1434H10672C10672 -1435.66 10670.7 -1437 10669 -1437V-1435ZM-1229 -1437C-1230.66 -1437 -1232 -1435.66 -1232 -1434H-1230C-1230 -1434.55 -1229.55 -1435 -1229 -1435V-1437Z" fill="white" fill-opacity="0.1"/>
<g id="&#208;&#158;&#208;&#191;&#208;&#187;&#208;&#176;&#209;&#130;&#208;&#176; &#208;&#186;&#209;&#128;&#208;&#181;&#208;&#180;&#208;&#184;&#209;&#130;&#208;&#176; &#208;&#178; &#208;&#188;&#208;&#190;&#208;&#177;&#208;&#184;&#208;&#187;&#209;&#140;&#208;&#189;&#208;&#190;&#208;&#188; &#208;&#191;&#209;&#128;&#208;&#184;&#208;&#187;&#208;&#190;&#208;&#182;&#208;&#181;&#208;&#189;&#208;&#184;&#208;&#184;" clip-path="url(#clip0_0_1)">
<rect width="1920" height="3034" transform="translate(-990 -1160)" fill="#F9F8F7"/>
<g id="Frame 737">
<g id="Frame 744">
<g id="Frame 732">
<g id="Frame 714">
<g id="Cards">
<g clip-path="url(#clip1_0_1)">
<rect x="-23.5" y="-24" width="293.75" height="264" rx="16" fill="#F2F2F2"/>
<g id="Frame 741">
<g id="Frame 736">
<g id="Group 18">
<path id="Vector" d="M4.36078 26.6025C6.17029 28.4188 9.0826 28.4188 14.9072 28.4188H15.9369C21.7616 28.4188 24.6739 28.4188 26.4834 26.6025C28.2929 24.7863 28.2929 21.8631 28.2929 16.0166V14.9831C28.2929 9.1367 28.2929 6.21343 26.4834 4.3972C24.6739 2.58105 21.7616 2.58105 15.9369 2.58105H14.9072C9.0826 2.58105 6.17029 2.58105 4.36078 4.3972C2.55127 6.21343 2.55127 9.1367 2.55127 14.9831V16.0166C2.55127 21.8631 2.55127 24.7863 4.36078 26.6025Z" fill="#0077FF"/>
<path id="Vector_2" fill-rule="evenodd" clip-rule="evenodd" d="M22.4253 19.7549L20.686 19.3187C20.4766 19.2585 20.3287 19.0693 20.3213 18.8494L20.1042 12.4239C20.0414 11.5735 19.4125 10.8971 18.7552 10.6979C18.7183 10.6867 18.6789 10.7018 18.657 10.7337C18.6348 10.766 18.6434 10.8108 18.6744 10.8349C18.8367 10.961 19.2834 11.3725 19.2834 12.0824L19.2821 20.4836C19.2821 21.2948 18.5184 21.8897 17.7306 21.6922L15.9645 21.2494C15.7686 21.1806 15.6326 20.9975 15.6255 20.7864L15.4085 14.3605C15.3457 13.51 14.7167 12.8336 14.0594 12.6344C14.0225 12.6232 13.9831 12.6383 13.9613 12.6701C13.9391 12.7025 13.9476 12.7474 13.9787 12.7714C14.141 12.8975 14.5877 13.3091 14.5877 14.0189L14.5864 21.0217L14.5873 21.0219V22.4209C14.5873 23.2321 13.8236 23.8271 13.0359 23.6295L8.04724 22.3787C7.35373 22.2048 6.86743 21.5821 6.86743 20.8678V12.4536C6.86743 11.6424 7.63109 11.0474 8.41885 11.2449L11.5622 12.0331V10.5163C11.5622 9.70506 12.3259 9.11014 13.1137 9.30761L16.2569 10.0957V8.57896C16.2569 7.76766 17.0205 7.17275 17.8083 7.37028L22.7969 8.6211C23.4904 8.79497 23.9767 9.41767 23.9767 10.1319V18.5462C23.9767 19.3574 23.2131 19.9523 22.4253 19.7549Z" fill="white"/>
</g>
</g>
</g>
</g>
</g>
</g>
</g>
</g>
</g>
</g>
</g>
<defs>
<clipPath id="clip0_0_1">
<rect width="1920" height="3034" fill="white" transform="translate(-990 -1160)"/>
</clipPath>
<clipPath id="clip1_0_1">
<rect x="-23.5" y="-24" width="293.75" height="264" rx="16" fill="white"/>
</clipPath>
</defs>
</svg>
