<svg width="25" height="24" viewBox="0 0 25 24" fill="none" xmlns="http://www.w3.org/2000/svg">
<rect width="25" height="24" fill="#1E1E1E"/>
<g id="pay 2.0">
<path d="M-1488 -3252C-1488 -3253.1 -1487.1 -3254 -1486 -3254H10412C10413.1 -3254 10414 -3253.1 10414 -3252V1487C10414 1488.1 10413.1 1489 10412 1489H-1486C-1487.1 1489 -1488 1488.1 -1488 1487V-3252Z" fill="#444444"/>
<path d="M-1486 -3253H10412V-3255H-1486V-3253ZM10413 -3252V1487H10415V-3252H10413ZM10412 1488H-1486V1490H10412V1488ZM-1487 1487V-3252H-1489V1487H-1487ZM-1486 1488C-1486.55 1488 -1487 1487.55 -1487 1487H-1489C-1489 1488.66 -1487.66 1490 -1486 1490V1488ZM10413 1487C10413 1487.55 10412.6 1488 10412 1488V1490C10413.7 1490 10415 1488.66 10415 1487H10413ZM10412 -3253C10412.6 -3253 10413 -3252.55 10413 -3252H10415C10415 -3253.66 10413.7 -3255 10412 -3255V-3253ZM-1486 -3255C-1487.66 -3255 -1489 -3253.66 -1489 -3252H-1487C-1487 -3252.55 -1486.55 -3253 -1486 -3253V-3255Z" fill="white" fill-opacity="0.1"/>
<g id="&#208;&#158;&#208;&#191;&#208;&#187;&#208;&#176;&#209;&#130;&#208;&#176; &#208;&#186;&#209;&#128;&#208;&#181;&#208;&#180;&#208;&#184;&#209;&#130;&#208;&#176; &#208;&#178; &#208;&#188;&#208;&#190;&#208;&#177;&#208;&#184;&#208;&#187;&#209;&#140;&#208;&#189;&#208;&#190;&#208;&#188; &#208;&#191;&#209;&#128;&#208;&#184;&#208;&#187;&#208;&#190;&#208;&#182;&#208;&#181;&#208;&#189;&#208;&#184;&#208;&#184;" clip-path="url(#clip0_0_1)">
<rect width="1920" height="3034" transform="translate(-1247 -2978)" fill="#F9F8F7"/>
<g id="Footer">
<rect width="1920" height="700" transform="translate(-1247 -644)" fill="white"/>
<g id="4">
<rect width="1920" height="88" transform="translate(-1247 -32)" fill="#F7F7F9"/>
<g id="Content">
<g id="Social media">
<g id="Telegram">
<path id="Vector" d="M12.1932 2C6.69324 2 2.19324 6.5 2.19324 12C2.19324 17.5 6.69324 22 12.1932 22C17.6932 22 22.1932 17.5 22.1932 12C22.1932 6.5 17.6932 2 12.1932 2ZM17.0932 8.1L15.3932 16.3C15.2932 16.9 14.8932 17 14.4932 16.7L11.8932 14.7C11.2932 15.3 10.6932 15.8 10.5932 16C10.3932 16.1 10.2932 16.3 10.0932 16.3C9.79324 16.3 9.79324 16.1 9.69324 15.9L8.79324 12.9L6.09324 12C5.49324 11.8 5.49324 11.4 6.19324 11.1L16.3932 7.2C16.7932 7.1 17.2932 7.3 17.0932 8.1ZM14.6932 9L8.99324 12.6L9.89324 15.6L10.0932 13.6L14.9932 9.2C15.2932 8.9 15.0932 8.9 14.6932 9Z" fill="#171717"/>
</g>
</g>
</g>
</g>
</g>
</g>
</g>
<defs>
<clipPath id="clip0_0_1">
<rect width="1920" height="3034" fill="white" transform="translate(-1247 -2978)"/>
</clipPath>
</defs>
</svg>
