<svg width="25" height="24" viewBox="0 0 25 24" fill="none" xmlns="http://www.w3.org/2000/svg">
<rect width="25" height="24" fill="#1E1E1E"/>
<g id="pay 2.0">
<path d="M-1456 -3252C-1456 -3253.1 -1455.1 -3254 -1454 -3254H10444C10445.1 -3254 10446 -3253.1 10446 -3252V1487C10446 1488.1 10445.1 1489 10444 1489H-1454C-1455.1 1489 -1456 1488.1 -1456 1487V-3252Z" fill="#444444"/>
<path d="M-1454 -3253H10444V-3255H-1454V-3253ZM10445 -3252V1487H10447V-3252H10445ZM10444 1488H-1454V1490H10444V1488ZM-1455 1487V-3252H-1457V1487H-1455ZM-1454 1488C-1454.55 1488 -1455 1487.55 -1455 1487H-1457C-1457 1488.66 -1455.66 1490 -1454 1490V1488ZM10445 1487C10445 1487.55 10444.6 1488 10444 1488V1490C10445.7 1490 10447 1488.66 10447 1487H10445ZM10444 -3253C10444.6 -3253 10445 -3252.55 10445 -3252H10447C10447 -3253.66 10445.7 -3255 10444 -3255V-3253ZM-1454 -3255C-1455.66 -3255 -1457 -3253.66 -1457 -3252H-1455C-1455 -3252.55 -1454.55 -3253 -1454 -3253V-3255Z" fill="white" fill-opacity="0.1"/>
<g id="&#208;&#158;&#208;&#191;&#208;&#187;&#208;&#176;&#209;&#130;&#208;&#176; &#208;&#186;&#209;&#128;&#208;&#181;&#208;&#180;&#208;&#184;&#209;&#130;&#208;&#176; &#208;&#178; &#208;&#188;&#208;&#190;&#208;&#177;&#208;&#184;&#208;&#187;&#209;&#140;&#208;&#189;&#208;&#190;&#208;&#188; &#208;&#191;&#209;&#128;&#208;&#184;&#208;&#187;&#208;&#190;&#208;&#182;&#208;&#181;&#208;&#189;&#208;&#184;&#208;&#184;" clip-path="url(#clip0_0_1)">
<rect width="1920" height="3034" transform="translate(-1215 -2978)" fill="#F9F8F7"/>
<g id="Footer">
<rect width="1920" height="700" transform="translate(-1215 -644)" fill="white"/>
<g id="4">
<rect width="1920" height="88" transform="translate(-1215 -32)" fill="#F7F7F9"/>
<g id="Content">
<g id="Social media">
<g id="VK">
<path id="Vector" fill-rule="evenodd" clip-rule="evenodd" d="M3.59324 3.4C2.19324 4.81333 2.19324 7.07333 2.19324 11.6V12.4C2.19324 16.92 2.19324 19.18 3.59324 20.6C5.00657 22 7.26657 22 11.7932 22H12.5932C17.1132 22 19.3732 22 20.7932 20.6C22.1932 19.1867 22.1932 16.9267 22.1932 12.4V11.6C22.1932 7.08 22.1932 4.82 20.7932 3.4C19.3799 2 17.1199 2 12.5932 2H11.7932C7.27324 2 5.01324 2 3.59324 3.4ZM5.56657 8.08667C5.67324 13.2867 8.27324 16.4067 12.8332 16.4067H13.0999V13.4333C14.7732 13.6 16.0399 14.8267 16.5465 16.4067H18.9132C18.6705 15.5089 18.2401 14.6727 17.6506 13.9533C17.0611 13.234 16.3258 12.6478 15.4932 12.2333C16.2393 11.779 16.8837 11.1756 17.3861 10.461C17.8885 9.7464 18.2382 8.93585 18.4132 8.08H16.2665C15.7999 9.73334 14.4132 11.2333 13.0999 11.3733V8.08667H10.9465V13.8467C9.61324 13.5133 7.93324 11.9 7.8599 8.08667H5.56657Z" fill="#171717"/>
</g>
</g>
</g>
</g>
</g>
</g>
</g>
<defs>
<clipPath id="clip0_0_1">
<rect width="1920" height="3034" fill="white" transform="translate(-1215 -2978)"/>
</clipPath>
</defs>
</svg>
